<svg width="227" height="164" viewBox="0 0 227 164" fill="none" xmlns="http://www.w3.org/2000/svg">
<mask id="mask0_210_387" style="mask-type:luminance" maskUnits="userSpaceOnUse" x="72" y="12" width="29" height="40">
<path d="M72.6198 12H100.333V52H72.6198V12Z" fill="white"/>
</mask>
<g mask="url(#mask0_210_387)">
<path d="M98.0937 51.6094C97.651 51.6094 97.2083 51.4583 96.8593 51.1823L74.276 33.4115C73.7916 33.0313 73.5104 32.4583 73.5104 31.8438C73.5104 31.224 73.7916 30.651 74.276 30.2708L96.8593 12.5052C97.2083 12.224 97.651 12.0781 98.0937 12.0781C98.7135 12.0781 99.2864 12.349 99.6666 12.8385C99.9948 13.2552 100.146 13.7813 100.083 14.3125C100.021 14.8437 99.75 15.3177 99.3333 15.6458L78.75 31.8438L99.3333 48.0365C99.75 48.3698 100.021 48.8438 100.083 49.3698C100.146 49.901 99.9948 50.4219 99.6666 50.849C99.2864 51.3281 98.7135 51.6094 98.0937 51.6094Z" fill="#4723D9"/>
</g>
<mask id="mask1_210_387" style="mask-type:luminance" maskUnits="userSpaceOnUse" x="72" y="10" width="30" height="44">
<path d="M72.6198 10.6667H101.667V53.3334H72.6198V10.6667Z" fill="white"/>
</mask>
<g mask="url(#mask1_210_387)">
<path d="M98.0937 11.2241C97.4583 11.2241 96.8333 11.4377 96.3333 11.8335L73.7499 29.5991C73.0572 30.1512 72.6614 30.9637 72.6614 31.8439C72.6614 32.7241 73.0572 33.5418 73.7499 34.0835L96.3333 51.8491C96.8333 52.245 97.4583 52.4637 98.0937 52.4637C98.9791 52.4637 99.7968 52.0627 100.338 51.37C100.812 50.7762 101.016 50.0314 100.927 49.271C100.838 48.5158 100.458 47.8387 99.8593 47.37L80.1249 31.8439L99.8593 16.3179C100.458 15.8439 100.838 15.1668 100.927 14.4116C101.016 13.6564 100.812 12.9116 100.338 12.3127C99.7968 11.62 98.9739 11.2241 98.0937 11.2241ZM98.0937 12.9272C98.4374 12.9272 98.7708 13.0783 98.9999 13.3647C99.3905 13.8647 99.302 14.5887 98.8072 14.9793L77.3697 31.8439L98.8072 48.7085C99.302 49.0991 99.3905 49.8231 98.9999 50.3179C98.7708 50.6095 98.4374 50.7606 98.0937 50.7606C97.8437 50.7606 97.5989 50.6772 97.3853 50.5106L74.802 32.745C74.526 32.5262 74.3645 32.1929 74.3645 31.8439C74.3645 31.4897 74.526 31.1564 74.802 30.9377L97.3853 13.172C97.5937 13.0054 97.8437 12.9272 98.0937 12.9272Z" fill="#4723D9"/>
</g>
<mask id="mask2_210_387" style="mask-type:luminance" maskUnits="userSpaceOnUse" x="125" y="12" width="29" height="40">
<path d="M125.667 12H153.62V52H125.667V12Z" fill="white"/>
</mask>
<g mask="url(#mask2_210_387)">
<path d="M127.891 51.6094C127.276 51.6094 126.703 51.3281 126.318 50.849C125.635 49.9792 125.786 48.7188 126.656 48.0365L147.24 31.8438L126.656 15.6458C125.786 14.9635 125.635 13.7031 126.318 12.8385C126.703 12.349 127.276 12.0781 127.891 12.0781C128.339 12.0781 128.776 12.224 129.13 12.5052L151.714 30.2708C152.198 30.651 152.474 31.224 152.474 31.8438C152.474 32.4583 152.198 33.0313 151.708 33.4115L129.13 51.1823C128.776 51.4583 128.339 51.6094 127.891 51.6094Z" fill="#4723D9"/>
</g>
<mask id="mask3_210_387" style="mask-type:luminance" maskUnits="userSpaceOnUse" x="124" y="10" width="30" height="44">
<path d="M124.333 10.6667H153.62V53.3334H124.333V10.6667Z" fill="white"/>
</mask>
<g mask="url(#mask3_210_387)">
<path d="M127.891 11.2241C127.01 11.2241 126.193 11.62 125.651 12.3127C124.677 13.547 124.891 15.3439 126.125 16.3179L145.859 31.8439L126.125 47.37C124.891 48.3387 124.677 50.1356 125.651 51.37C126.193 52.0627 127.01 52.4637 127.891 52.4637C128.531 52.4637 129.151 52.245 129.651 51.8491L152.24 34.0835C152.927 33.5418 153.323 32.7241 153.323 31.8439C153.323 30.9637 152.927 30.1512 152.24 29.5991L129.656 11.8335C129.156 11.4377 128.531 11.2241 127.891 11.2241ZM127.891 12.9272C128.141 12.9272 128.391 13.0054 128.599 13.172L151.188 30.9377C151.464 31.1564 151.62 31.4897 151.62 31.8439C151.62 32.1929 151.464 32.5262 151.188 32.745L128.599 50.5106C128.391 50.6772 128.141 50.7606 127.891 50.7606C127.552 50.7606 127.214 50.6095 126.99 50.3179C126.599 49.8231 126.682 49.0991 127.182 48.7085L148.615 31.8439L127.182 14.9793C126.682 14.5887 126.599 13.8647 126.99 13.3647C127.214 13.0783 127.552 12.9272 127.891 12.9272Z" fill="#4723D9"/>
</g>
<path d="M101.771 62.3334C101.521 62.3334 101.281 62.2813 101.047 62.1928C100.552 62.0001 100.156 61.6251 99.9427 61.1407C99.7239 60.6459 99.7135 60.1043 99.9062 59.6095L121.958 2.63029C122.255 1.86987 123.005 1.35425 123.823 1.35425C124.073 1.35425 124.318 1.40112 124.552 1.48966C125.573 1.89071 126.089 3.05216 125.693 4.07821L103.635 61.0522C103.344 61.8178 102.589 62.3334 101.771 62.3334Z" fill="#4723D9"/>
<mask id="mask4_210_387" style="mask-type:luminance" maskUnits="userSpaceOnUse" x="97" y="0" width="30" height="64">
<path d="M97.6666 0.5H127V63.5H97.6666V0.5Z" fill="white"/>
</mask>
<g mask="url(#mask4_210_387)">
<path d="M123.823 0.5C122.656 0.5 121.583 1.23958 121.167 2.32292L99.1093 59.2969C98.8385 60.0104 98.8541 60.7865 99.1614 61.4844C99.4687 62.1771 100.031 62.7135 100.74 62.9896C101.073 63.1198 101.417 63.1823 101.771 63.1823C102.937 63.1823 104.01 62.4479 104.432 61.3594L126.484 4.38542C127.052 2.91667 126.323 1.26042 124.854 0.697917C124.526 0.567707 124.177 0.5 123.823 0.5ZM123.823 2.20313C123.964 2.20313 124.104 2.23437 124.24 2.28646C124.833 2.51042 125.125 3.17708 124.896 3.77083L102.839 60.7448C102.667 61.1979 102.229 61.4792 101.771 61.4792C101.63 61.4792 101.49 61.4531 101.354 61.401C100.76 61.1719 100.469 60.5052 100.703 59.9167L122.755 2.94271C122.932 2.48438 123.365 2.20313 123.823 2.20313Z" fill="#4723D9"/>
</g>
<path d="M23.9112 124.874C29.9893 124.874 34.6247 123.16 38.6039 120.676L35.2341 113.551C31.4216 115.869 27.6664 116.754 23.9112 116.754C15.7393 116.754 9.21847 110.843 9.21847 101.843V101.733C9.21847 92.3425 15.7914 86.7071 23.9112 86.7071C27.6664 86.7071 31.4216 87.6498 35.2341 89.9675L38.6039 82.8425C34.5153 80.2488 29.7653 78.5925 23.9112 78.5925C9.88513 78.5925 0.385132 87.9779 0.385132 101.733V101.843C0.385132 115.593 9.93722 124.874 23.9112 124.874Z" fill="#D6DAE0"/>
<path d="M58.5881 125.041C68.9683 125.041 76.2079 117.858 76.2079 108.082V108.03C76.2079 98.3062 68.9683 91.1812 58.5881 91.1812C48.2027 91.1812 41.0256 98.3062 41.0256 108.03V108.082C41.0256 117.858 48.26 125.041 58.5881 125.041ZM58.5881 117.197C53.3381 117.197 49.8069 113.218 49.8069 108.082V107.973C49.8069 102.889 53.2861 99.0249 58.5881 99.0249C63.9423 99.0249 67.3694 102.889 67.3694 107.973V108.082C67.3694 113.218 63.8902 117.197 58.5881 117.197Z" fill="#D6DAE0"/>
<path d="M96.1364 125.04C102.048 125.04 106.022 124.155 110.553 121.947V79.3633H101.824V92.0091C99.8916 91.5716 97.8499 91.181 95.803 91.181C84.9801 91.181 78.5739 98.306 78.5739 108.03V108.139C78.5739 117.858 85.3082 125.04 96.1364 125.04ZM96.1364 117.197C90.3916 117.197 87.3551 113.217 87.3551 108.139V108.03C87.3551 102.947 90.3916 99.0247 96.1364 99.0247C98.0686 99.0247 100.11 99.4674 101.824 99.8529V116.478C100.11 116.921 98.2353 117.197 96.1364 117.197Z" fill="#D6DAE0"/>
<path d="M131.31 125.04C137.222 125.04 141.195 124.155 145.727 121.947V79.3633H136.998V92.0091C135.065 91.5716 133.024 91.181 130.977 91.181C120.154 91.181 113.748 98.306 113.748 108.03V108.139C113.748 117.858 120.482 125.04 131.31 125.04ZM131.31 117.197C125.565 117.197 122.529 113.217 122.529 108.139V108.03C122.529 102.947 125.565 99.0247 131.31 99.0247C133.242 99.0247 135.284 99.4674 136.998 99.8529V116.478C135.284 116.921 133.409 117.197 131.31 117.197Z" fill="#D6DAE0"/>
<path d="M154 88.3114C156.432 88.3114 158.364 87.0978 158.364 84.4468C158.364 82.0718 156.598 80.6343 154 80.6343C151.463 80.6343 149.64 82.0718 149.64 84.4468C149.64 87.0978 151.625 88.3114 154 88.3114ZM158.421 124.155V92.452H149.64V124.155H158.421Z" fill="#D6DAE0"/>
<path d="M171.066 124.155V99.577C173.108 99.2489 175.097 99.0249 176.644 99.0249C180.727 99.0249 182.941 100.514 182.941 104.494V124.155H191.665V103.442C191.665 93.9468 184.873 91.1812 177.03 91.1812C173.826 91.1812 167.587 91.8999 162.285 92.8374V124.155H171.066Z" fill="#D6DAE0"/>
<path d="M213.086 91.1812C201.873 91.1812 194.862 96.6499 194.862 106.702V106.811C194.862 116.921 201.487 122.718 212.81 122.718C214.691 122.718 216.513 122.499 218.222 122.166V123.494C218.222 127.468 216.566 129.181 211.321 129.181C208.394 129.181 203.368 128.41 200.217 127.082L202.154 135.202C204.138 136.082 208.56 136.916 212.477 136.916C220.211 136.916 227.003 133.874 227.003 124.374V94.3322C223.691 92.7853 218.498 91.1812 213.086 91.1812ZM203.644 106.869C203.644 101.4 207.123 99.0249 213.086 99.0249C214.8 99.0249 216.513 99.2489 218.222 99.8009V114.27C216.347 114.712 214.633 114.879 213.144 114.879C207.066 114.879 203.644 112.389 203.644 106.926V106.869Z" fill="#D6DAE0"/>
<path d="M79.3326 163.4C82.1555 163.4 84.3066 162.603 86.1555 161.452L84.5878 158.139C82.8222 159.218 81.0774 159.629 79.3326 159.629C75.5357 159.629 72.5097 156.884 72.5097 152.702V152.655C72.5097 148.29 75.5618 145.676 79.3326 145.676C81.0774 145.676 82.8222 146.113 84.5878 147.191L86.1555 143.879C84.2545 142.676 82.0514 141.905 79.3326 141.905C72.817 141.905 68.4055 146.264 68.4055 152.655V152.702C68.4055 159.093 72.843 163.4 79.3326 163.4Z" fill="#4723D9"/>
<path d="M94.4328 163.478C95.9224 163.478 98.8182 163.145 101.256 162.707V148.343H97.2036V159.733C96.2557 159.91 95.3286 159.988 94.6099 159.988C92.688 159.988 91.688 159.322 91.688 157.447V148.343H87.6099V157.78C87.6099 162.197 90.7922 163.478 94.4328 163.478Z" fill="#4723D9"/>
<path d="M107.149 163.066V152.296C107.482 152.218 109.149 152.087 109.764 152.087H111.972V148.343H109.097C107.764 148.343 105.227 148.447 103.071 148.91V163.066H107.149Z" fill="#4723D9"/>
<path d="M119.482 163.4C123.868 163.4 126.05 161.811 126.05 158.629C126.05 156.296 124.508 154.858 121.201 153.936L120.149 153.655C118.378 153.139 117.659 152.78 117.659 152.035C117.659 151.218 118.534 150.936 120.019 150.936C121.279 150.936 123.05 151.218 124.357 151.91L125.534 149.061C124.024 148.264 121.764 147.78 119.534 147.78C115.712 147.78 113.555 149.447 113.555 152.165C113.555 154.603 114.941 156.04 118.019 156.858L119.404 157.218C121.56 157.806 122.045 158.139 122.045 158.936C122.045 160.014 120.868 160.244 119.123 160.244C117.633 160.244 115.842 159.91 114.123 159.165L113.019 162.119C115.123 162.988 117.175 163.4 119.482 163.4Z" fill="#4723D9"/>
<path d="M135.303 163.478C140.126 163.478 143.485 160.145 143.485 155.603V155.577C143.485 151.061 140.126 147.754 135.303 147.754C130.48 147.754 127.146 151.061 127.146 155.577V155.603C127.146 160.145 130.506 163.478 135.303 163.478ZM135.303 159.832C132.865 159.832 131.224 157.989 131.224 155.603V155.551C131.224 153.192 132.839 151.395 135.303 151.395C137.792 151.395 139.381 153.192 139.381 155.551V155.603C139.381 157.989 137.766 159.832 135.303 159.832Z" fill="#4723D9"/>
<path d="M151.045 163.4C155.431 163.4 157.613 161.811 157.613 158.629C157.613 156.296 156.071 154.858 152.764 153.936L151.712 153.655C149.941 153.139 149.222 152.78 149.222 152.035C149.222 151.218 150.097 150.936 151.582 150.936C152.842 150.936 154.613 151.218 155.92 151.91L157.097 149.061C155.587 148.264 153.326 147.78 151.097 147.78C147.274 147.78 145.118 149.447 145.118 152.165C145.118 154.603 146.503 156.04 149.582 156.858L150.967 157.218C153.123 157.806 153.608 158.139 153.608 158.936C153.608 160.014 152.431 160.244 150.686 160.244C149.196 160.244 147.404 159.91 145.686 159.165L144.582 162.119C146.686 162.988 148.738 163.4 151.045 163.4Z" fill="#4723D9"/>
</svg>
