<svg width="150" height="100" viewBox="0 0 227 164" fill="none" xmlns="http://www.w3.org/2000/svg">
<g clip-path="url(#clip0_109_44)">
<mask id="mask0_109_44" style="mask-type:luminance" maskUnits="userSpaceOnUse" x="72" y="12" width="29" height="40">
<path d="M72.6196 12H100.333V52H72.6196V12Z" fill="white"/>
</mask>
<g mask="url(#mask0_109_44)">
<path d="M98.0936 51.6094C97.6509 51.6094 97.2082 51.4583 96.8592 51.1823L74.2759 33.4115C73.7915 33.0313 73.5103 32.4583 73.5103 31.8438C73.5103 31.224 73.7915 30.651 74.2759 30.2708L96.8592 12.5052C97.2082 12.224 97.6509 12.0781 98.0936 12.0781C98.7134 12.0781 99.2863 12.349 99.6665 12.8385C99.9947 13.2552 100.146 13.7813 100.083 14.3125C100.021 14.8437 99.7499 15.3177 99.3332 15.6458L78.7499 31.8438L99.3332 48.0365C99.7499 48.3698 100.021 48.8438 100.083 49.3698C100.146 49.901 99.9947 50.4219 99.6665 50.849C99.2863 51.3281 98.7134 51.6094 98.0936 51.6094Z" fill="#4723D9"/>
</g>
<mask id="mask1_109_44" style="mask-type:luminance" maskUnits="userSpaceOnUse" x="72" y="10" width="30" height="44">
<path d="M72.6196 10.6667H101.667V53.3335H72.6196V10.6667Z" fill="white"/>
</mask>
<g mask="url(#mask1_109_44)">
<path d="M98.0934 11.2241C97.458 11.2241 96.833 11.4377 96.333 11.8335L73.7496 29.5991C73.0569 30.1512 72.6611 30.9637 72.6611 31.8439C72.6611 32.7241 73.0569 33.5418 73.7496 34.0835L96.333 51.8491C96.833 52.245 97.458 52.4637 98.0934 52.4637C98.9788 52.4637 99.7965 52.0627 100.338 51.37C100.812 50.7762 101.016 50.0314 100.927 49.271C100.838 48.5158 100.458 47.8387 99.859 47.37L80.1246 31.8439L99.859 16.3179C100.458 15.8439 100.838 15.1668 100.927 14.4116C101.016 13.6564 100.812 12.9116 100.338 12.3127C99.7965 11.62 98.9736 11.2241 98.0934 11.2241ZM98.0934 12.9272C98.4371 12.9272 98.7705 13.0783 98.9996 13.3647C99.3902 13.8647 99.3017 14.5887 98.8069 14.9793L77.3694 31.8439L98.8069 48.7085C99.3017 49.0991 99.3902 49.8231 98.9996 50.3179C98.7705 50.6095 98.4371 50.7606 98.0934 50.7606C97.8434 50.7606 97.5986 50.6772 97.385 50.5106L74.8017 32.745C74.5257 32.5262 74.3642 32.1929 74.3642 31.8439C74.3642 31.4897 74.5257 31.1564 74.8017 30.9377L97.385 13.172C97.5934 13.0054 97.8434 12.9272 98.0934 12.9272Z" fill="#4723D9"/>
</g>
<mask id="mask2_109_44" style="mask-type:luminance" maskUnits="userSpaceOnUse" x="125" y="12" width="29" height="40">
<path d="M125.667 12H153.62V52H125.667V12Z" fill="white"/>
</mask>
<g mask="url(#mask2_109_44)">
<path d="M127.891 51.6094C127.276 51.6094 126.703 51.3281 126.318 50.849C125.635 49.9792 125.786 48.7188 126.656 48.0365L147.24 31.8438L126.656 15.6458C125.786 14.9635 125.635 13.7031 126.318 12.8385C126.703 12.349 127.276 12.0781 127.891 12.0781C128.339 12.0781 128.776 12.224 129.13 12.5052L151.714 30.2708C152.198 30.651 152.474 31.224 152.474 31.8438C152.474 32.4583 152.198 33.0313 151.708 33.4115L129.13 51.1823C128.776 51.4583 128.339 51.6094 127.891 51.6094Z" fill="#4723D9"/>
</g>
<mask id="mask3_109_44" style="mask-type:luminance" maskUnits="userSpaceOnUse" x="124" y="10" width="30" height="44">
<path d="M124.333 10.6667H153.62V53.3335H124.333V10.6667Z" fill="white"/>
</mask>
<g mask="url(#mask3_109_44)">
<path d="M127.891 11.2241C127.01 11.2241 126.193 11.62 125.651 12.3127C124.677 13.547 124.891 15.3439 126.125 16.3179L145.859 31.8439L126.125 47.37C124.891 48.3387 124.677 50.1356 125.651 51.37C126.193 52.0627 127.01 52.4637 127.891 52.4637C128.531 52.4637 129.151 52.245 129.651 51.8491L152.24 34.0835C152.927 33.5418 153.323 32.7241 153.323 31.8439C153.323 30.9637 152.927 30.1512 152.24 29.5991L129.656 11.8335C129.156 11.4377 128.531 11.2241 127.891 11.2241ZM127.891 12.9272C128.141 12.9272 128.391 13.0054 128.599 13.172L151.188 30.9377C151.464 31.1564 151.62 31.4897 151.62 31.8439C151.62 32.1929 151.464 32.5262 151.188 32.745L128.599 50.5106C128.391 50.6772 128.141 50.7606 127.891 50.7606C127.552 50.7606 127.214 50.6095 126.99 50.3179C126.599 49.8231 126.682 49.0991 127.182 48.7085L148.615 31.8439L127.182 14.9793C126.682 14.5887 126.599 13.8647 126.99 13.3647C127.214 13.0783 127.552 12.9272 127.891 12.9272Z" fill="#4723D9"/>
</g>
<path d="M101.771 62.3334C101.521 62.3334 101.281 62.2813 101.047 62.1928C100.552 62.0001 100.156 61.6251 99.9426 61.1407C99.7238 60.6459 99.7134 60.1043 99.9061 59.6095L121.958 2.63029C122.255 1.86987 123.005 1.35425 123.823 1.35425C124.073 1.35425 124.318 1.40112 124.552 1.48966C125.573 1.89071 126.089 3.05216 125.693 4.07821L103.635 61.0522C103.344 61.8178 102.589 62.3334 101.771 62.3334Z" fill="#4723D9"/>
<mask id="mask4_109_44" style="mask-type:luminance" maskUnits="userSpaceOnUse" x="97" y="0" width="30" height="64">
<path d="M97.6665 0.5H127V63.5H97.6665V0.5Z" fill="white"/>
</mask>
<g mask="url(#mask4_109_44)">
<path d="M123.823 0.5C122.656 0.5 121.583 1.23958 121.167 2.32292L99.109 59.2969C98.8382 60.0104 98.8538 60.7865 99.1611 61.4844C99.4684 62.1771 100.031 62.7135 100.74 62.9896C101.073 63.1198 101.417 63.1823 101.771 63.1823C102.937 63.1823 104.01 62.4479 104.432 61.3594L126.484 4.38542C127.052 2.91667 126.323 1.26042 124.854 0.697917C124.526 0.567707 124.177 0.5 123.823 0.5ZM123.823 2.20313C123.964 2.20313 124.104 2.23437 124.24 2.28646C124.833 2.51042 125.125 3.17708 124.896 3.77083L102.839 60.7448C102.667 61.1979 102.229 61.4792 101.771 61.4792C101.63 61.4792 101.49 61.4531 101.354 61.401C100.76 61.1719 100.469 60.5052 100.703 59.9167L122.755 2.94271C122.932 2.48438 123.365 2.20313 123.823 2.20313Z" fill="#4723D9"/>
</g>
<path d="M23.9113 124.874C29.9894 124.874 34.6248 123.16 38.604 120.676L35.2342 113.551C31.4217 115.869 27.6665 116.754 23.9113 116.754C15.7394 116.754 9.21859 110.843 9.21859 101.843V101.733C9.21859 92.3425 15.7915 86.7071 23.9113 86.7071C27.6665 86.7071 31.4217 87.6498 35.2342 89.9675L38.604 82.8425C34.5154 80.2488 29.7654 78.5925 23.9113 78.5925C9.88525 78.5925 0.385254 87.9779 0.385254 101.733V101.843C0.385254 115.593 9.93734 124.874 23.9113 124.874Z" fill="#4723D9"/>
<path d="M58.5879 125.041C68.9681 125.041 76.2077 117.858 76.2077 108.082V108.03C76.2077 98.3062 68.9681 91.1812 58.5879 91.1812C48.2025 91.1812 41.0254 98.3062 41.0254 108.03V108.082C41.0254 117.858 48.2598 125.041 58.5879 125.041ZM58.5879 117.197C53.3379 117.197 49.8067 113.218 49.8067 108.082V107.973C49.8067 102.889 53.2859 99.0249 58.5879 99.0249C63.9421 99.0249 67.3692 102.889 67.3692 107.973V108.082C67.3692 113.218 63.89 117.197 58.5879 117.197Z" fill="#4723D9"/>
<path d="M96.1362 125.04C102.048 125.04 106.022 124.155 110.553 121.947V79.3633H101.824V92.0091C99.8914 91.5716 97.8497 91.181 95.8028 91.181C84.9799 91.181 78.5737 98.306 78.5737 108.03V108.139C78.5737 117.858 85.308 125.04 96.1362 125.04ZM96.1362 117.197C90.3914 117.197 87.3549 113.217 87.3549 108.139V108.03C87.3549 102.947 90.3914 99.0247 96.1362 99.0247C98.0684 99.0247 100.11 99.4674 101.824 99.8529V116.478C100.11 116.921 98.2351 117.197 96.1362 117.197Z" fill="#4723D9"/>
<path d="M131.31 125.04C137.222 125.04 141.195 124.155 145.727 121.947V79.3633H136.998V92.0091C135.065 91.5716 133.024 91.181 130.977 91.181C120.154 91.181 113.748 98.306 113.748 108.03V108.139C113.748 117.858 120.482 125.04 131.31 125.04ZM131.31 117.197C125.565 117.197 122.529 113.217 122.529 108.139V108.03C122.529 102.947 125.565 99.0247 131.31 99.0247C133.242 99.0247 135.284 99.4674 136.998 99.8529V116.478C135.284 116.921 133.409 117.197 131.31 117.197Z" fill="#4723D9"/>
<path d="M154 88.3114C156.432 88.3114 158.364 87.0978 158.364 84.4468C158.364 82.0718 156.598 80.6343 154 80.6343C151.463 80.6343 149.64 82.0718 149.64 84.4468C149.64 87.0978 151.625 88.3114 154 88.3114ZM158.421 124.155V92.452H149.64V124.155H158.421Z" fill="#4723D9"/>
<path d="M171.066 124.155V99.577C173.108 99.2489 175.097 99.0249 176.644 99.0249C180.727 99.0249 182.941 100.514 182.941 104.494V124.155H191.665V103.442C191.665 93.9468 184.873 91.1812 177.03 91.1812C173.826 91.1812 167.587 91.8999 162.285 92.8374V124.155H171.066Z" fill="#4723D9"/>
<path d="M213.086 91.1812C201.873 91.1812 194.862 96.6499 194.862 106.702V106.811C194.862 116.921 201.487 122.718 212.81 122.718C214.691 122.718 216.513 122.499 218.222 122.166V123.494C218.222 127.468 216.566 129.181 211.321 129.181C208.394 129.181 203.368 128.41 200.217 127.082L202.154 135.202C204.138 136.082 208.56 136.916 212.477 136.916C220.211 136.916 227.003 133.874 227.003 124.374V94.3322C223.691 92.7853 218.498 91.1812 213.086 91.1812ZM203.644 106.869C203.644 101.4 207.123 99.0249 213.086 99.0249C214.8 99.0249 216.513 99.2489 218.222 99.8009V114.27C216.347 114.712 214.633 114.879 213.144 114.879C207.066 114.879 203.644 112.389 203.644 106.926V106.869Z" fill="#4723D9"/>
<path d="M79.3324 163.4C82.1553 163.4 84.3064 162.603 86.1553 161.452L84.5876 158.139C82.822 159.218 81.0772 159.629 79.3324 159.629C75.5355 159.629 72.5095 156.884 72.5095 152.702V152.655C72.5095 148.29 75.5616 145.676 79.3324 145.676C81.0772 145.676 82.822 146.113 84.5876 147.191L86.1553 143.879C84.2543 142.676 82.0512 141.905 79.3324 141.905C72.8168 141.905 68.4053 146.264 68.4053 152.655V152.702C68.4053 159.093 72.8428 163.4 79.3324 163.4Z" fill="#4723D9"/>
<path d="M94.4328 163.478C95.9224 163.478 98.8182 163.145 101.256 162.707V148.343H97.2036V159.733C96.2557 159.91 95.3286 159.988 94.6099 159.988C92.688 159.988 91.688 159.322 91.688 157.447V148.343H87.6099V157.78C87.6099 162.197 90.7922 163.478 94.4328 163.478Z" fill="#4723D9"/>
<path d="M107.149 163.066V152.296C107.482 152.218 109.149 152.087 109.764 152.087H111.972V148.343H109.097C107.764 148.343 105.227 148.447 103.071 148.91V163.066H107.149Z" fill="#4723D9"/>
<path d="M119.482 163.4C123.868 163.4 126.05 161.811 126.05 158.629C126.05 156.296 124.508 154.858 121.201 153.936L120.149 153.655C118.378 153.139 117.659 152.78 117.659 152.035C117.659 151.218 118.534 150.936 120.019 150.936C121.279 150.936 123.05 151.218 124.357 151.91L125.534 149.061C124.024 148.264 121.764 147.78 119.534 147.78C115.712 147.78 113.555 149.447 113.555 152.165C113.555 154.603 114.941 156.04 118.019 156.858L119.404 157.218C121.56 157.806 122.045 158.139 122.045 158.936C122.045 160.014 120.868 160.244 119.123 160.244C117.633 160.244 115.842 159.91 114.123 159.165L113.019 162.119C115.123 162.988 117.175 163.4 119.482 163.4Z" fill="#4723D9"/>
<path d="M135.303 163.478C140.126 163.478 143.485 160.145 143.485 155.603V155.577C143.485 151.061 140.126 147.754 135.303 147.754C130.48 147.754 127.146 151.061 127.146 155.577V155.603C127.146 160.145 130.506 163.478 135.303 163.478ZM135.303 159.832C132.865 159.832 131.224 157.989 131.224 155.603V155.551C131.224 153.192 132.839 151.395 135.303 151.395C137.792 151.395 139.381 153.192 139.381 155.551V155.603C139.381 157.989 137.766 159.832 135.303 159.832Z" fill="#4723D9"/>
<path d="M151.045 163.4C155.431 163.4 157.613 161.811 157.613 158.629C157.613 156.296 156.071 154.858 152.764 153.936L151.712 153.655C149.941 153.139 149.222 152.78 149.222 152.035C149.222 151.218 150.097 150.936 151.582 150.936C152.842 150.936 154.613 151.218 155.92 151.91L157.097 149.061C155.587 148.264 153.326 147.78 151.097 147.78C147.274 147.78 145.118 149.447 145.118 152.165C145.118 154.603 146.503 156.04 149.582 156.858L150.967 157.218C153.123 157.806 153.608 158.139 153.608 158.936C153.608 160.014 152.431 160.244 150.686 160.244C149.196 160.244 147.404 159.91 145.686 159.165L144.582 162.119C146.686 162.988 148.738 163.4 151.045 163.4Z" fill="#4723D9"/>
</g>
<defs>
<clipPath id="clip0_109_44">
<rect width="227" height="164" fill="white"/>
</clipPath>
</defs>
</svg>
