<svg width="50" height="50" viewBox="0 0 82 64" fill="none" xmlns="http://www.w3.org/2000/svg">
<mask id="mask0_210_415" style="mask-type:luminance" maskUnits="userSpaceOnUse" x="0" y="11" width="29" height="42">
<path d="M0.619873 11.3333H28.3334V52.6666H0.619873V11.3333Z" fill="white"/>
</mask>
<g mask="url(#mask0_210_415)">
<path d="M26.0938 51.7603C25.6511 51.7603 25.2084 51.6093 24.8595 51.328L2.27612 33.5624C1.79175 33.1822 1.5105 32.6093 1.5105 31.9947C1.5105 31.3749 1.79175 30.802 2.27612 30.4166L24.8595 12.6562C25.2084 12.3749 25.6511 12.2239 26.0938 12.2239C26.7136 12.2239 27.2865 12.4999 27.6667 12.9895C27.9949 13.4062 28.1459 13.9322 28.0834 14.4583C28.0209 14.9947 27.7501 15.4635 27.3334 15.7968L6.75008 31.9947L27.3334 48.1874C27.7501 48.5208 28.0209 48.9947 28.0834 49.5208C28.1459 50.052 27.9949 50.5728 27.6667 50.9947C27.2865 51.4791 26.7136 51.7603 26.0938 51.7603Z" fill="#F1EEFA"/>
</g>
<mask id="mask1_210_415" style="mask-type:luminance" maskUnits="userSpaceOnUse" x="0" y="11" width="30" height="42">
<path d="M0.619873 11.3333H29.6667V52.6666H0.619873V11.3333Z" fill="white"/>
</mask>
<g mask="url(#mask1_210_415)">
<path d="M26.0939 11.375C25.4585 11.375 24.8335 11.5885 24.3335 11.9844L1.75016 29.75C1.05745 30.3021 0.661621 31.1146 0.661621 31.9948C0.661621 32.8698 1.05745 33.6875 1.75016 34.2344L24.3335 52C24.8335 52.3958 25.4585 52.6094 26.0939 52.6094C26.9793 52.6094 27.797 52.2135 28.3387 51.5208C28.8127 50.9271 29.0158 50.1771 28.9272 49.4219C28.8387 48.6667 28.4585 47.9896 27.8595 47.5208L8.12516 31.9948L27.8595 16.4688C28.4585 15.9948 28.8387 15.3177 28.9272 14.5625C29.0158 13.8073 28.8127 13.0625 28.3387 12.4583C27.797 11.7708 26.9741 11.375 26.0939 11.375ZM26.0939 13.0781C26.4377 13.0781 26.771 13.2292 27.0002 13.5156C27.3908 14.0156 27.3022 14.7344 26.8075 15.1302L5.36995 31.9948L26.8075 48.8594C27.3022 49.25 27.3908 49.9688 27.0002 50.4688C26.771 50.7604 26.4377 50.9063 26.0939 50.9063C25.8439 50.9063 25.5991 50.8281 25.3856 50.6615L2.80225 32.8958C2.5262 32.6771 2.36475 32.3437 2.36475 31.9948C2.36475 31.6406 2.5262 31.3073 2.80225 31.0885L25.3856 13.3229C25.5939 13.1563 25.8439 13.0781 26.0939 13.0781Z" fill="#F1EEFA"/>
</g>
<mask id="mask2_210_415" style="mask-type:luminance" maskUnits="userSpaceOnUse" x="53" y="11" width="29" height="42">
<path d="M53.6667 11.3333H81.6199V52.6666H53.6667V11.3333Z" fill="white"/>
</mask>
<g mask="url(#mask2_210_415)">
<path d="M55.8907 51.7603C55.2761 51.7603 54.7032 51.4791 54.3178 50.9947C53.6355 50.1301 53.7866 48.8697 54.6563 48.1874L75.2397 31.9947L54.6563 15.7968C53.7866 15.1145 53.6355 13.8541 54.3178 12.9895C54.7032 12.4999 55.2761 12.2239 55.8907 12.2239C56.3386 12.2239 56.7761 12.3749 57.1303 12.6562L79.7136 30.4166C80.198 30.802 80.4741 31.3749 80.4741 31.9947C80.4741 32.6093 80.198 33.1822 79.7084 33.5624L57.1303 51.328C56.7761 51.6093 56.3386 51.7603 55.8907 51.7603Z" fill="#F1EEFA"/>
</g>
<mask id="mask3_210_415" style="mask-type:luminance" maskUnits="userSpaceOnUse" x="52" y="11" width="30" height="42">
<path d="M52.3333 11.3333H81.6197V52.6666H52.3333V11.3333Z" fill="white"/>
</mask>
<g mask="url(#mask3_210_415)">
<path d="M55.8905 11.375C55.0103 11.375 54.1926 11.7708 53.6509 12.4635C52.677 13.6979 52.8905 15.4948 54.1249 16.4688L73.8593 31.9948L54.1249 47.5208C52.8905 48.4896 52.677 50.2865 53.6509 51.5208C54.1926 52.2135 55.0103 52.6094 55.8905 52.6094C56.5311 52.6094 57.1509 52.3958 57.6509 52L80.2395 34.2344C80.927 33.6875 81.3228 32.8698 81.3228 31.9948C81.3228 31.1146 80.927 30.3021 80.2395 29.75L57.6561 11.9844C57.1561 11.5885 56.5311 11.375 55.8905 11.375ZM55.8905 13.0781C56.1405 13.0781 56.3905 13.1563 56.5988 13.3229L79.1874 31.0885C79.4634 31.3073 79.6197 31.6406 79.6197 31.9948C79.6197 32.3437 79.4634 32.6771 79.1874 32.8958L56.5988 50.6615C56.3905 50.8281 56.1405 50.9063 55.8905 50.9063C55.552 50.9063 55.2134 50.7604 54.9895 50.4688C54.5988 49.9688 54.6822 49.25 55.1822 48.8594L76.6145 31.9948L55.1822 15.1302C54.6822 14.7344 54.5988 14.0156 54.9895 13.5156C55.2134 13.2292 55.552 13.0781 55.8905 13.0781Z" fill="#F1EEFA"/>
</g>
<path d="M29.7709 62.4791C29.5209 62.4791 29.2813 62.4322 29.047 62.3437C28.5522 62.151 28.1563 61.776 27.9428 61.2864C27.7241 60.7968 27.7136 60.2551 27.9063 59.7603L49.9584 2.78117C50.2553 2.02075 51.0053 1.50513 51.823 1.50513C52.073 1.50513 52.3178 1.552 52.5522 1.64054C53.573 2.04158 54.0886 3.20304 53.6928 4.22909L31.6355 61.203C31.3438 61.9687 30.5886 62.4791 29.7709 62.4791Z" fill="#F1EEFA"/>
<mask id="mask4_210_415" style="mask-type:luminance" maskUnits="userSpaceOnUse" x="25" y="0" width="30" height="64">
<path d="M25.6667 0.651123H55.0001V63.3334H25.6667V0.651123Z" fill="white"/>
</mask>
<g mask="url(#mask4_210_415)">
<path d="M51.823 0.651123C50.6563 0.651123 49.5834 1.39071 49.1668 2.47404L27.1095 59.448C26.8386 60.1615 26.8543 60.9324 27.1616 61.6355C27.4688 62.3282 28.0313 62.8647 28.7397 63.1407C29.073 63.2709 29.4168 63.3334 29.7709 63.3334C30.9376 63.3334 32.0105 62.599 32.4324 61.5105L54.4845 4.53654C55.0522 3.06779 54.323 1.41154 52.8543 0.84904C52.5261 0.71883 52.1772 0.651123 51.823 0.651123ZM51.823 2.35425C51.9636 2.35425 52.1043 2.3855 52.2397 2.43237C52.8334 2.66154 53.1251 3.32821 52.8959 3.92196L30.8386 60.8959C30.6668 61.349 30.2293 61.6303 29.7709 61.6303C29.6303 61.6303 29.4897 61.6043 29.3543 61.5522C28.7605 61.323 28.4688 60.6563 28.7032 60.0678L50.7553 3.09383C50.9324 2.6355 51.3647 2.35425 51.823 2.35425Z" fill="#F1EEFA"/>
</g>
</svg>
