<svg width="632" height="144" viewBox="0 0 632 144" fill="none" xmlns="http://www.w3.org/2000/svg">
<path d="M94.2206 39.28L74.4446 106H62.0606L48.0446 55.504L33.1646 106L20.8766 106.096L1.96463 39.28H13.5806L27.4046 93.616L42.3806 39.28H54.6686L68.5886 93.328L82.5086 39.28H94.2206ZM114.191 48.112V67.696H137.231V76.624H114.191V97.072H140.111V106H103.247V39.184H140.111V48.112H114.191ZM189.303 71.728C192.887 72.368 195.927 74.256 198.423 77.392C200.919 80.528 202.167 84.08 202.167 88.048C202.167 91.44 201.271 94.512 199.479 97.264C197.751 99.952 195.223 102.096 191.895 103.696C188.567 105.232 184.695 106 180.279 106H153.591V39.28H179.031C183.575 39.28 187.479 40.048 190.743 41.584C194.007 43.12 196.471 45.2 198.135 47.824C199.799 50.384 200.631 53.264 200.631 56.464C200.631 60.304 199.607 63.504 197.559 66.064C195.511 68.624 192.759 70.512 189.303 71.728ZM164.535 67.312H178.071C181.655 67.312 184.439 66.512 186.423 64.912C188.471 63.248 189.495 60.88 189.495 57.808C189.495 54.8 188.471 52.464 186.423 50.8C184.439 49.072 181.655 48.208 178.071 48.208H164.535V67.312ZM179.319 97.072C183.031 97.072 185.943 96.176 188.055 94.384C190.167 92.592 191.223 90.096 191.223 86.896C191.223 83.632 190.103 81.04 187.863 79.12C185.623 77.2 182.647 76.24 178.935 76.24H164.535V97.072H179.319Z" fill="url(#paint0_linear_205_8)"/>
<path d="M330.127 38.608V78.928C330.127 82.96 331.119 86.064 333.103 88.24C335.087 90.416 337.999 91.504 341.839 91.504C345.679 91.504 348.623 90.416 350.671 88.24C352.719 86.064 353.743 82.96 353.743 78.928V38.608H370.159V78.832C370.159 84.848 368.879 89.936 366.319 94.096C363.759 98.256 360.303 101.392 355.951 103.504C351.663 105.616 346.863 106.672 341.551 106.672C336.239 106.672 331.471 105.648 327.247 103.6C323.087 101.488 319.791 98.352 317.359 94.192C314.927 89.968 313.711 84.848 313.711 78.832V38.608H330.127ZM416.054 106L402.038 80.56H398.102V106H381.686V38.608H409.238C414.55 38.608 419.062 39.536 422.774 41.392C426.55 43.248 429.366 45.808 431.222 49.072C433.078 52.272 434.006 55.856 434.006 59.824C434.006 64.304 432.726 68.304 430.166 71.824C427.67 75.344 423.958 77.84 419.03 79.312L434.582 106H416.054ZM398.102 68.944H408.278C411.286 68.944 413.526 68.208 414.998 66.736C416.534 65.264 417.302 63.184 417.302 60.496C417.302 57.936 416.534 55.92 414.998 54.448C413.526 52.976 411.286 52.24 408.278 52.24H398.102V68.944ZM468.695 106.672C463.767 106.672 459.351 105.872 455.447 104.272C451.543 102.672 448.407 100.304 446.039 97.168C443.735 94.032 442.519 90.256 442.391 85.84H459.863C460.119 88.336 460.983 90.256 462.455 91.6C463.927 92.88 465.847 93.52 468.215 93.52C470.647 93.52 472.567 92.976 473.975 91.888C475.383 90.736 476.087 89.168 476.087 87.184C476.087 85.52 475.511 84.144 474.359 83.056C473.271 81.968 471.895 81.072 470.231 80.368C468.631 79.664 466.327 78.864 463.319 77.968C458.967 76.624 455.415 75.28 452.663 73.936C449.911 72.592 447.543 70.608 445.559 67.984C443.575 65.36 442.583 61.936 442.583 57.712C442.583 51.44 444.855 46.544 449.399 43.024C453.943 39.44 459.863 37.648 467.159 37.648C474.583 37.648 480.567 39.44 485.111 43.024C489.655 46.544 492.087 51.472 492.407 57.808H474.647C474.519 55.632 473.719 53.936 472.247 52.72C470.775 51.44 468.887 50.8 466.583 50.8C464.599 50.8 462.999 51.344 461.783 52.432C460.567 53.456 459.959 54.96 459.959 56.944C459.959 59.12 460.983 60.816 463.031 62.032C465.079 63.248 468.279 64.56 472.631 65.968C476.983 67.44 480.503 68.848 483.191 70.192C485.943 71.536 488.311 73.488 490.295 76.048C492.279 78.608 493.271 81.904 493.271 85.936C493.271 89.776 492.279 93.264 490.295 96.4C488.375 99.536 485.559 102.032 481.847 103.888C478.135 105.744 473.751 106.672 468.695 106.672ZM535.246 106.672C528.91 106.672 523.086 105.2 517.774 102.256C512.526 99.312 508.334 95.216 505.198 89.968C502.126 84.656 500.59 78.704 500.59 72.112C500.59 65.52 502.126 59.6 505.198 54.352C508.334 49.104 512.526 45.008 517.774 42.064C523.086 39.12 528.91 37.648 535.246 37.648C541.582 37.648 547.374 39.12 552.622 42.064C557.934 45.008 562.094 49.104 565.102 54.352C568.174 59.6 569.71 65.52 569.71 72.112C569.71 78.704 568.174 84.656 565.102 89.968C562.03 95.216 557.87 99.312 552.622 102.256C547.374 105.2 541.582 106.672 535.246 106.672ZM535.246 91.696C540.622 91.696 544.91 89.904 548.11 86.32C551.374 82.736 553.006 78 553.006 72.112C553.006 66.16 551.374 61.424 548.11 57.904C544.91 54.32 540.622 52.528 535.246 52.528C529.806 52.528 525.454 54.288 522.19 57.808C518.99 61.328 517.39 66.096 517.39 72.112C517.39 78.064 518.99 82.832 522.19 86.416C525.454 89.936 529.806 91.696 535.246 91.696ZM603.227 106.672C598.299 106.672 593.883 105.872 589.979 104.272C586.075 102.672 582.939 100.304 580.571 97.168C578.267 94.032 577.051 90.256 576.923 85.84H594.395C594.651 88.336 595.515 90.256 596.987 91.6C598.459 92.88 600.379 93.52 602.747 93.52C605.179 93.52 607.099 92.976 608.507 91.888C609.915 90.736 610.619 89.168 610.619 87.184C610.619 85.52 610.043 84.144 608.891 83.056C607.803 81.968 606.427 81.072 604.763 80.368C603.163 79.664 600.859 78.864 597.851 77.968C593.499 76.624 589.947 75.28 587.195 73.936C584.443 72.592 582.075 70.608 580.091 67.984C578.107 65.36 577.115 61.936 577.115 57.712C577.115 51.44 579.387 46.544 583.931 43.024C588.475 39.44 594.395 37.648 601.691 37.648C609.115 37.648 615.099 39.44 619.643 43.024C624.187 46.544 626.619 51.472 626.939 57.808H609.179C609.051 55.632 608.251 53.936 606.779 52.72C605.307 51.44 603.419 50.8 601.115 50.8C599.131 50.8 597.531 51.344 596.315 52.432C595.099 53.456 594.491 54.96 594.491 56.944C594.491 59.12 595.515 60.816 597.563 62.032C599.611 63.248 602.811 64.56 607.163 65.968C611.515 67.44 615.035 68.848 617.723 70.192C620.475 71.536 622.843 73.488 624.827 76.048C626.811 78.608 627.803 81.904 627.803 85.936C627.803 89.776 626.811 93.264 624.827 96.4C622.907 99.536 620.091 102.032 616.379 103.888C612.667 105.744 608.283 106.672 603.227 106.672Z" fill="black"/>
<g filter="url(#filter0_f_205_8)">
<path d="M279.437 37.676C279.287 38.6135 279.212 39.551 279.212 40.4885C279.212 48.9259 286.037 55.747 294.437 55.747C295.375 55.747 296.275 55.6383 297.212 55.4883V85.7466C297.212 98.4626 289.712 106 276.962 106H249.254C236.5 106 229 98.4626 229 85.7466V58.0007C229 45.2509 236.5 37.676 249.254 37.676H279.437ZM280.191 60.4757C279.175 60.3632 278.166 60.8132 277.562 61.6382L268.491 73.3755L258.1 65.2006C257.462 64.7131 256.712 64.5219 255.962 64.6006C255.216 64.7131 254.541 65.1219 254.087 65.7219L242.991 80.1629L242.762 80.5004C242.125 81.6966 242.425 83.2341 243.55 84.0628C244.075 84.4003 244.637 84.6253 245.275 84.6253C246.141 84.6628 246.962 84.2091 247.487 83.5003L256.9 71.3843L267.587 79.4129L267.925 79.6341C269.125 80.2716 270.625 79.9754 271.487 78.8467L282.325 64.8631L282.175 64.9381C282.775 64.1131 282.887 63.0631 282.475 62.1257C282.066 61.1882 281.162 60.5507 280.191 60.4757ZM294.963 31C299.95 31 304 35.0499 304 40.0374C304 45.0248 299.95 49.0747 294.963 49.0747C289.975 49.0747 285.925 45.0248 285.925 40.0374C285.925 35.0499 289.975 31 294.963 31Z" fill="black"/>
</g>
<defs>
<filter id="filter0_f_205_8" x="228" y="30" width="77" height="77" filterUnits="userSpaceOnUse" color-interpolation-filters="sRGB">
<feFlood flood-opacity="0" result="BackgroundImageFix"/>
<feBlend mode="normal" in="SourceGraphic" in2="BackgroundImageFix" result="shape"/>
<feGaussianBlur stdDeviation="0.5" result="effect1_foregroundBlur_205_8"/>
</filter>
<linearGradient id="paint0_linear_205_8" x1="-111.698" y1="92" x2="206.994" y2="85.6994" gradientUnits="userSpaceOnUse">
<stop stop-color="white"/>
<stop offset="1"/>
</linearGradient>
</defs>
</svg>
