<svg width="637" height="144" viewBox="0 0 637 144" fill="none" xmlns="http://www.w3.org/2000/svg">
<g filter="url(#filter0_f_206_10)">
<path d="M99.0942 38.608L81.5263 106H61.6543L50.9023 61.648L39.7663 106H19.8943L2.80625 38.608H20.3743L30.0703 87.664L42.0703 38.608H60.1183L71.6383 87.664L81.4303 38.608H99.0942ZM123.743 51.76V65.392H145.727V78.064H123.743V92.848H148.607V106H107.327V38.608H148.607V51.76H123.743ZM200.065 71.44C203.969 72.272 207.105 74.224 209.473 77.296C211.841 80.304 213.025 83.76 213.025 87.664C213.025 93.296 211.041 97.776 207.073 101.104C203.169 104.368 197.697 106 190.657 106H159.265V38.608H189.601C196.449 38.608 201.793 40.176 205.633 43.312C209.537 46.448 211.489 50.704 211.489 56.08C211.489 60.048 210.433 63.344 208.321 65.968C206.273 68.592 203.521 70.416 200.065 71.44ZM175.681 65.872H186.433C189.121 65.872 191.169 65.296 192.577 64.144C194.049 62.928 194.785 61.168 194.785 58.864C194.785 56.56 194.049 54.8 192.577 53.584C191.169 52.368 189.121 51.76 186.433 51.76H175.681V65.872ZM187.777 92.752C190.529 92.752 192.641 92.144 194.113 90.928C195.649 89.648 196.417 87.824 196.417 85.456C196.417 83.088 195.617 81.232 194.017 79.888C192.481 78.544 190.337 77.872 187.585 77.872H175.681V92.752H187.777Z" fill="url(#paint0_linear_206_10)"/>
</g>
<path d="M335.127 38.608V78.928C335.127 82.96 336.119 86.064 338.103 88.24C340.087 90.416 342.999 91.504 346.839 91.504C350.679 91.504 353.623 90.416 355.671 88.24C357.719 86.064 358.743 82.96 358.743 78.928V38.608H375.159V78.832C375.159 84.848 373.879 89.936 371.319 94.096C368.759 98.256 365.303 101.392 360.951 103.504C356.663 105.616 351.863 106.672 346.551 106.672C341.239 106.672 336.471 105.648 332.247 103.6C328.087 101.488 324.791 98.352 322.359 94.192C319.927 89.968 318.711 84.848 318.711 78.832V38.608H335.127ZM421.054 106L407.038 80.56H403.102V106H386.686V38.608H414.238C419.55 38.608 424.062 39.536 427.774 41.392C431.55 43.248 434.366 45.808 436.222 49.072C438.078 52.272 439.006 55.856 439.006 59.824C439.006 64.304 437.726 68.304 435.166 71.824C432.67 75.344 428.958 77.84 424.03 79.312L439.582 106H421.054ZM403.102 68.944H413.278C416.286 68.944 418.526 68.208 419.998 66.736C421.534 65.264 422.302 63.184 422.302 60.496C422.302 57.936 421.534 55.92 419.998 54.448C418.526 52.976 416.286 52.24 413.278 52.24H403.102V68.944ZM473.695 106.672C468.767 106.672 464.351 105.872 460.447 104.272C456.543 102.672 453.407 100.304 451.039 97.168C448.735 94.032 447.519 90.256 447.391 85.84H464.863C465.119 88.336 465.983 90.256 467.455 91.6C468.927 92.88 470.847 93.52 473.215 93.52C475.647 93.52 477.567 92.976 478.975 91.888C480.383 90.736 481.087 89.168 481.087 87.184C481.087 85.52 480.511 84.144 479.359 83.056C478.271 81.968 476.895 81.072 475.231 80.368C473.631 79.664 471.327 78.864 468.319 77.968C463.967 76.624 460.415 75.28 457.663 73.936C454.911 72.592 452.543 70.608 450.559 67.984C448.575 65.36 447.583 61.936 447.583 57.712C447.583 51.44 449.855 46.544 454.399 43.024C458.943 39.44 464.863 37.648 472.159 37.648C479.583 37.648 485.567 39.44 490.111 43.024C494.655 46.544 497.087 51.472 497.407 57.808H479.647C479.519 55.632 478.719 53.936 477.247 52.72C475.775 51.44 473.887 50.8 471.583 50.8C469.599 50.8 467.999 51.344 466.783 52.432C465.567 53.456 464.959 54.96 464.959 56.944C464.959 59.12 465.983 60.816 468.031 62.032C470.079 63.248 473.279 64.56 477.631 65.968C481.983 67.44 485.503 68.848 488.191 70.192C490.943 71.536 493.311 73.488 495.295 76.048C497.279 78.608 498.271 81.904 498.271 85.936C498.271 89.776 497.279 93.264 495.295 96.4C493.375 99.536 490.559 102.032 486.847 103.888C483.135 105.744 478.751 106.672 473.695 106.672ZM540.246 106.672C533.91 106.672 528.086 105.2 522.774 102.256C517.526 99.312 513.334 95.216 510.198 89.968C507.126 84.656 505.59 78.704 505.59 72.112C505.59 65.52 507.126 59.6 510.198 54.352C513.334 49.104 517.526 45.008 522.774 42.064C528.086 39.12 533.91 37.648 540.246 37.648C546.582 37.648 552.374 39.12 557.622 42.064C562.934 45.008 567.094 49.104 570.102 54.352C573.174 59.6 574.71 65.52 574.71 72.112C574.71 78.704 573.174 84.656 570.102 89.968C567.03 95.216 562.87 99.312 557.622 102.256C552.374 105.2 546.582 106.672 540.246 106.672ZM540.246 91.696C545.622 91.696 549.91 89.904 553.11 86.32C556.374 82.736 558.006 78 558.006 72.112C558.006 66.16 556.374 61.424 553.11 57.904C549.91 54.32 545.622 52.528 540.246 52.528C534.806 52.528 530.454 54.288 527.19 57.808C523.99 61.328 522.39 66.096 522.39 72.112C522.39 78.064 523.99 82.832 527.19 86.416C530.454 89.936 534.806 91.696 540.246 91.696ZM608.227 106.672C603.299 106.672 598.883 105.872 594.979 104.272C591.075 102.672 587.939 100.304 585.571 97.168C583.267 94.032 582.051 90.256 581.923 85.84H599.395C599.651 88.336 600.515 90.256 601.987 91.6C603.459 92.88 605.379 93.52 607.747 93.52C610.179 93.52 612.099 92.976 613.507 91.888C614.915 90.736 615.619 89.168 615.619 87.184C615.619 85.52 615.043 84.144 613.891 83.056C612.803 81.968 611.427 81.072 609.763 80.368C608.163 79.664 605.859 78.864 602.851 77.968C598.499 76.624 594.947 75.28 592.195 73.936C589.443 72.592 587.075 70.608 585.091 67.984C583.107 65.36 582.115 61.936 582.115 57.712C582.115 51.44 584.387 46.544 588.931 43.024C593.475 39.44 599.395 37.648 606.691 37.648C614.115 37.648 620.099 39.44 624.643 43.024C629.187 46.544 631.619 51.472 631.939 57.808H614.179C614.051 55.632 613.251 53.936 611.779 52.72C610.307 51.44 608.419 50.8 606.115 50.8C604.131 50.8 602.531 51.344 601.315 52.432C600.099 53.456 599.491 54.96 599.491 56.944C599.491 59.12 600.515 60.816 602.563 62.032C604.611 63.248 607.811 64.56 612.163 65.968C616.515 67.44 620.035 68.848 622.723 70.192C625.475 71.536 627.843 73.488 629.827 76.048C631.811 78.608 632.803 81.904 632.803 85.936C632.803 89.776 631.811 93.264 629.827 96.4C627.907 99.536 625.091 102.032 621.379 103.888C617.667 105.744 613.283 106.672 608.227 106.672Z" fill="black"/>
<g filter="url(#filter1_f_206_10)">
<path d="M284.437 37.676C284.287 38.6135 284.212 39.551 284.212 40.4885C284.212 48.9259 291.037 55.747 299.437 55.747C300.375 55.747 301.275 55.6383 302.212 55.4883V85.7466C302.212 98.4626 294.712 106 281.962 106H254.254C241.5 106 234 98.4626 234 85.7466V58.0007C234 45.2509 241.5 37.676 254.254 37.676H284.437ZM285.191 60.4757C284.175 60.3632 283.166 60.8132 282.562 61.6382L273.491 73.3755L263.1 65.2006C262.462 64.7131 261.712 64.5219 260.962 64.6006C260.216 64.7131 259.541 65.1219 259.087 65.7219L247.991 80.1629L247.762 80.5004C247.125 81.6966 247.425 83.2341 248.55 84.0628C249.075 84.4003 249.637 84.6253 250.275 84.6253C251.141 84.6628 251.962 84.2091 252.487 83.5003L261.9 71.3843L272.587 79.4129L272.925 79.6341C274.125 80.2716 275.625 79.9754 276.487 78.8467L287.325 64.8631L287.175 64.9381C287.775 64.1131 287.887 63.0631 287.475 62.1257C287.066 61.1882 286.162 60.5507 285.191 60.4757ZM299.963 31C304.95 31 309 35.0499 309 40.0374C309 45.0248 304.95 49.0747 299.963 49.0747C294.975 49.0747 290.925 45.0248 290.925 40.0374C290.925 35.0499 294.975 31 299.963 31Z" fill="black"/>
</g>
<defs>
<filter id="filter0_f_206_10" x="1.80624" y="37.608" width="212.218" height="69.392" filterUnits="userSpaceOnUse" color-interpolation-filters="sRGB">
<feFlood flood-opacity="0" result="BackgroundImageFix"/>
<feBlend mode="normal" in="SourceGraphic" in2="BackgroundImageFix" result="shape"/>
<feGaussianBlur stdDeviation="0.5" result="effect1_foregroundBlur_206_10"/>
</filter>
<filter id="filter1_f_206_10" x="233" y="30" width="77" height="77" filterUnits="userSpaceOnUse" color-interpolation-filters="sRGB">
<feFlood flood-opacity="0" result="BackgroundImageFix"/>
<feBlend mode="normal" in="SourceGraphic" in2="BackgroundImageFix" result="shape"/>
<feGaussianBlur stdDeviation="0.5" result="effect1_foregroundBlur_206_10"/>
</filter>
<linearGradient id="paint0_linear_206_10" x1="-117.094" y1="92" x2="216.981" y2="85.0762" gradientUnits="userSpaceOnUse">
<stop stop-color="white"/>
<stop offset="1"/>
</linearGradient>
</defs>
</svg>
